<svg width="85" height="74" viewBox="0 0 85 74" fill="none" xmlns="http://www.w3.org/2000/svg">
<path d="M41.4 17.12C42.6 12 45.08 8.03999 48.84 5.23999C52.52 2.35999 56.8 0.919992 61.68 0.919992C69.12 0.919991 74.88 3.39999 78.96 8.35999C82.96 13.24 84.96 20.28 84.96 29.48L84.96 74L0 74L-1.89358e-06 30.68C-2.27124e-06 22.04 1.88 15.24 5.64 10.28C9.4 5.32 14.88 2.83999 22.08 2.83999C27.04 2.83999 31.24 4.15999 34.68 6.79999C38.04 9.35999 40.28 12.8 41.4 17.12ZM33.12 47.36L33.12 37.04C33.12 34.64 32.64 32.88 31.68 31.76C30.72 30.56 29.24 29.96 27.24 29.96C25.16 29.96 23.64 30.56 22.68 31.76C21.64 32.88 21.12 34.64 21.12 37.04L21.12 47.36L33.12 47.36ZM63.6 35.24C63.6 32.84 63.16 31.08 62.28 29.96C61.32 28.76 59.8 28.16 57.72 28.16C53.64 28.16 51.6 30.52 51.6 35.24L51.6 47.36L63.6 47.36L63.6 35.24Z" fill="#E43939"/>
<rect y="43" width="13" height="31" fill="black" fill-opacity="0.38"/>
<rect x="8" y="22" width="13" height="52" fill="black" fill-opacity="0.38"/>
<rect x="33" y="40" width="13" height="34" fill="black" fill-opacity="0.38"/>
<rect x="38" y="48" width="13" height="26" fill="black" fill-opacity="0.38"/>
<rect x="67" y="44" width="13" height="30" fill="black" fill-opacity="0.38"/>
<rect y="70" width="85" height="4" fill="#E43962"/>
<rect x="72" y="31" width="13" height="43" fill="black" fill-opacity="0.38"/>
</svg>
